#!OML:ASF E:\emotionWalksFemale\Project 1\Capture day 1\Session 1\Female1.ASF
:FULLY-SPECIFIED
:DEGREES
456
root 8.34065 19.7996 15.6338 -169.402 -36.7338 -187.562
lowerback 12.5812 4.17903 5.63265
upperback -6.1307 6.42093 -1.59524
thorax -13.0551 2.40122 -6.40426
lowerneck -4.88616 6.32264 4.07785
upperneck 9.98773 8.79026 -7.25786
head 4.28986 4.06167 -2.40373
rclavicle 1.01927e-013 1.59028e-015
rhumerus 107.494 -25.9495 -56.9741
rradius 54.5013
rwrist -4.61112
rhand -7.57352 -33.3938
rfingers 7.12502
rthumb 18.3192 -62.5512
lclavicle 1.01927e-013 1.59028e-015
lhumerus 134.312 2.46116 101.047
lradius 29.4113
lwrist 17.8536
lhand -9.18109 -50.6297
lfingers 7.12502
lthumb 16.7721 -21.3341
rfemur 8.00215 20.158 31.3875
rtibia 16.7589
rfoot -47.8107 -27.1693
rtoes 69.1368
lfemur -3.41661 -25.2278 -25.9749
ltibia 25.6041
lfoot -30.5518 21.5969
ltoes 67.1719
457
root 8.35112 19.9316 15.4951 -169.721 -38.2798 -187.938
lowerback 12.8163 4.03488 5.38992
upperback -6.20465 6.18393 -1.70099
thorax -13.3316 2.2851 -6.36963
lowerneck -4.71077 6.10551 4.2911
upperneck 10.8066 8.51762 -7.34279
head 4.50616 3.90897 -2.47907
rclavicle -3.95581e-014 2.70347e-014
rhumerus 107.687 -26.2347 -57.2326
rradius 55.4588
rwrist -6.48316
rhand -8.9336 -32.6094
rfingers 7.12502
rthumb 17.0104 -61.8846
lclavicle -3.95581e-014 2.70347e-014
lhumerus 134.996 1.83521 102.152
lradius 29.2033
lwrist 18.0115
lhand -8.92041 -51.0917
lfingers 7.12502
lthumb 17.023 -21.8176
rfemur 8.30999 21.0206 31.6806
rtibia 16.9762
rfoot -49.7309 -22.1278
rtoes 69.0602
lfemur -2.93859 -25.6603 -26.4007
ltibia 25.766
lfoot -32.3694 18.7145
ltoes 67.6413
458
root 8.35987 20.0578 15.3597 -169.866 -39.8527 -188.375
lowerback 12.9043 3.92798 5.2314
upperback -6.25987 5.99594 -1.85201
thorax -13.4753 2.19146 -6.42362
lowerneck -4.91788 5.9153 4.71082
upperneck 11.9144 8.27574 -7.47704
head 4.88793 3.76333 -2.58897
rclavicle 1.98785e-015 1.11319e-014
rhumerus 107.671 -26.7521 -57.1932
rradius 56.1857
rwrist -8.15142
rhand -10.2398 -31.9021
rfingers 7.12502
rthumb 15.7527 -61.281
lclavicle 1.98785e-015 1.11319e-014
lhumerus 134.858 2.15479 102.876
lradius 29.5696
lwrist 18.2742
lhand -8.97122 -51.1617
lfingers 7.12502
lthumb 16.9741 -21.8833
rfemur 8.44716 22.179 31.8998
rtibia 17.2261
rfoot -51.649 -19.7595
rtoes 69.4221
lfemur -2.70469 -25.2719 -26.6481
ltibia 25.834
lfoot -31.6334 18.5422
ltoes 67.4688
459
root 8.36924 20.1788 15.2201 -169.767 -41.3545 -188.844
lowerback 12.7369 3.87188 4.99821
upperback -6.31606 5.84726 -1.99078
thorax -13.4653 2.13345 -6.40268
lowerneck -5.311 5.76456 4.85718
upperneck 12.9451 8.06976 -7.32771
head 5.25864 3.64171 -2.5636
rclavicle -5.397e-014 -3.02153e-014
rhumerus 107.644 -27.3192 -57.1239
rradius 56.8153
rwrist -9.46399
rhand -10.8303 -32.0158
rfingers 7.12502
rthumb 15.1839 -61.4387
lclavicle -5.397e-014 -3.02153e-014
lhumerus 134.612 3.16821 103.221
lradius 29.8452
lwrist 18.474
lhand -9.17847 -51.012
lfingers 7.12502
lthumb 16.7746 -21.7167
rfemur 8.32828 23.3011 31.8912
rtibia 17.407
rfoot -52.7894 -18.193
rtoes 69.5866
lfemur -2.74951 -24.3795 -26.7215
ltibia 25.8988
lfoot -29.3219 20.3387
ltoes 66.7506
460
root 8.38022 20.2833 15.0739 -169.646 -42.867 -189.325
lowerback 12.4381 3.78547 4.67323
upperback -6.35259 5.63224 -2.138
thorax -13.3669 2.05778 -6.31055
lowerneck -5.45802 5.59914 4.96514
upperneck 13.6618 7.83396 -7.1754
head 5.48869 3.5187 -2.54401
rclavicle -6.21202e-014 -2.70347e-014
rhumerus 108.043 -27.7376 -57.2356
rradius 56.9315
rwrist -10.3099
rhand -11.1295 -32.9118
rfingers 7.12502
rthumb 14.8957 -62.3563
lclavicle -6.21202e-014 -2.70347e-014
lhumerus 134.484 4.29205 103.246
lradius 29.6433
lwrist 18.3845
lhand -9.20138 -50.956
lfingers 7.12502
lthumb 16.7526 -21.6588
rfemur 8.29976 24.6797 31.9378
rtibia 17.5293
rfoot -53.9693 -16.0621
rtoes 69.6905
lfemur -2.74024 -23.5744 -26.7973
ltibia 25.9603
lfoot -26.6202 22.4516
ltoes 65.8903
461
root 8.38966 20.3723 14.93 -169.721 -44.4073 -189.789
lowerback 12.2638 3.6698 4.40492
upperback -6.31382 5.40115 -2.25931
thorax -13.2559 1.97376 -6.22599
lowerneck -5.30573 5.47174 5.08093
upperneck 14.1525 7.63876 -6.98932
head 5.59977 3.43065 -2.52193
rclavicle 3.23025e-014 -6.36111e-015
rhumerus 108.654 -28.0513 -57.3076
rradius 56.588
rwrist -10.5233
rhand -11.5127 -33.358
rfingers 7.12502
rthumb 14.5265 -62.8295
lclavicle 3.23025e-014 -6.36111e-015
lhumerus 134.384 5.18969 103.301
lradius 29.0609
lwrist 17.8189
lhand -9.51379 -50.9022
lfingers 7.12502
lthumb 16.4518 -21.5797
rfemur 8.38113 25.3178 31.8125
rtibia 17.604
rfoot -54.026 -14.9548
rtoes 69.6857
lfemur -2.45611 -23.1647 -27.016
ltibia 26.0178
lfoot -24.4384 23.9022
ltoes 65.2265
462
root 8.39708 20.4548 14.7919 -169.913 -45.8721 -190.087
lowerback 12.1274 3.59954 4.29332
upperback -6.23882 5.27701 -2.28605
thorax -13.1073 1.93498 -6.1481
lowerneck -5.27888 5.35764 4.94118
upperneck 14.6925 7.47395 -6.72891
head 5.73786 3.34532 -2.42946
rclavicle -3.81667e-014 1.19271e-014
rhumerus 108.805 -28.2659 -57.3523
rradius 56.5696
rwrist -10.2401
rhand -11.5811 -32.8332
rfingers 7.12502
rthumb 14.4606 -62.3094
lclavicle -3.81667e-014 1.19271e-014
lhumerus 134.182 6.2046 103.448
lradius 28.4643
lwrist 17.0584
lhand -10.0349 -50.6191
lfingers 7.12502
lthumb 15.95 -21.2558
rfemur 8.21608 24.8935 31.3616
rtibia 17.6635
rfoot -52.5535 -15.9808
rtoes 69.5679
lfemur -2.17573 -22.9147 -27.1634
ltibia 26.087
lfoot -23.4698 24.2778
ltoes 65.1164
463
root 8.40314 20.5302 14.6567 -170.066 -47.3193 -190.213
lowerback 11.906 3.55366 4.33786
upperback -6.21766 5.21739 -2.25544
thorax -12.9535 1.91463 -6.10325
lowerneck -5.35216 5.23235 4.41724
upperneck 15.229 7.29576 -6.23017
head 5.86967 3.24745 -2.19795
rclavicle 4.01545e-014 5.56597e-015
rhumerus 108.455 -28.3526 -57.3762
rradius 56.8249
rwrist -9.93335
rhand -11.1784 -33.782
rfingers 7.12502
rthumb 14.8486 -63.2299
lclavicle 4.01545e-014 5.56597e-015
lhumerus 133.75 7.46423 103.542
lradius 28.0525
lwrist 16.5409
lhand -10.2077 -50.274
lfingers 7.12502
lthumb 15.7836 -20.8975
rfemur 7.933 25.1065 31.1174
rtibia 17.7435
rfoot -51.7966 -16.2223
rtoes 69.588
lfemur -2.13157 -22.757 -27.1414
ltibia 26.1627
lfoot -23.2868 24.2758
ltoes 65.4251
464
root 8.40822 20.5903 14.5232 -170.295 -48.7969 -190.322
lowerback 11.6883 3.48576 4.26851
upperback -6.15437 5.11349 -2.18393
thorax -12.7719 1.88835 -5.93827
lowerneck -5.15669 5.21578 4.06815
upperneck 15.4789 7.25082 -5.78203
head 5.88265 3.23328 -2.00808
rclavicle 3.66758e-014 3.18055e-015
rhumerus 108.203 -28.3492 -57.4131
rradius 56.7893
rwrist -9.89786
rhand -11.2591 -33.279
rfingers 7.12502
rthumb 14.7709 -62.7327
lclavicle 3.66758e-014 3.18055e-015
lhumerus 133.443 8.2436 103.825
lradius 27.4174
lwrist 15.5592
lhand -10.8012 -50.1222
lfingers 7.12502
lthumb 15.212 -20.7014
rfemur 7.83147 25.7813 31.1049
rtibia 17.8396
rfoot -51.9392 -14.6512
rtoes 69.7895
lfemur -2.01864 -22.8373 -27.1895
ltibia 26.2161
lfoot -23.4648 24.1797
ltoes 65.7041
465
root 8.41647 20.6308 14.3882 -170.704 -50.1595 -190.433
lowerback 11.5787 3.4457 3.94308
upperback -6.0057 5.01216 -2.08751
thorax -12.5795 1.88908 -5.6084
lowerneck -5.83282 4.84881 4.36101
upperneck 16.3343 6.78624 -6.17902
head 6.26794 2.9615 -2.19928
rclavicle -8.3092e-014 -6.36111e-015
rhumerus 108.298 -28.3561 -57.507
rradius 56.3373
rwrist -10.1344
rhand -11.7131 -32.6917
rfingers 7.12502
rthumb 14.3335 -62.1769
lclavicle -8.3092e-014 -6.36111e-015
lhumerus 133.128 8.7807 104.083
lradius 26.8466
lwrist 14.5435
lhand -12.0604 -49.7498
lfingers 7.12502
lthumb 13.9988 -20.2411
rfemur 7.81658 25.7757 30.9777
rtibia 17.9681
rfoot -51.7121 -13.0428
rtoes 69.992
lfemur -1.61921 -23.1597 -27.401
ltibia 26.2041
lfoot -25.1137 22.8789
ltoes 66.2908
